<svg width="225" height="21" viewBox="0 0 225 21" fill="none" xmlns="http://www.w3.org/2000/svg">
<g clip-path="url(#clip0_1_251)">
<path d="M13.5516 20.1446L11.0433 20.8057L5.57742 12.5613L2.50753 12.4835L2.65728 20.4557L0.186401 20.6502V0.505728L4.97842 0.350169C7.1498 0.272391 8.83449 0.777951 9.99505 1.78906C11.1556 2.83906 11.7546 4.23906 11.7546 5.91129C11.7546 7.03906 11.3802 8.12795 10.6689 9.21684C9.95762 10.3446 8.9468 11.2002 7.59905 11.7446V11.8224L13.5516 20.1446ZM2.61985 1.94462L2.47009 11.1224L6.21386 10.9668C7.56161 10.578 9.17143 8.94461 9.17143 6.5335C9.17143 3.85017 7.48673 2.10018 4.67891 2.0224L2.61985 1.94462ZM25.1947 20.8057C19.8037 20.8057 15.5733 16.6446 15.5733 10.4224C15.5733 4.70572 20.3653 0.0390625 25.7563 0.0390625C31.1847 0.0390625 35.4152 4.23906 35.4152 10.4613C35.3778 16.2168 30.3611 20.8057 25.1947 20.8057ZM25.5691 19.1335C29.7995 19.1335 32.7571 15.8668 32.7571 10.6557C32.7571 5.44461 29.3129 1.71128 25.3819 1.71128C21.1889 1.71128 18.1939 4.93906 18.1939 10.2279C18.1939 15.3224 21.713 19.1335 25.5691 19.1335ZM46.01 20.4557L43.5392 20.6502V11.0835L36.2388 0.700172L38.8969 0.350169L45.0367 9.64461L51.3636 0.350169L53.4976 0.700172L45.9726 11.2002L46.01 20.4557ZM70.2696 20.4168L67.6864 20.6891L65.7771 15.3613L56.4551 15.5557L54.5458 20.6502L52.4119 20.4168L60.7604 0.350169L61.8836 0.0779478L70.2696 20.4168ZM61.0225 3.81128L57.1664 13.7668L65.1781 13.9224L61.0225 3.81128ZM78.8428 20.4557L73.7139 20.6113V0.544613L76.1847 0.350169L76.0724 8.86683L76.1473 18.9002L84.3836 18.5891L84.1964 20.4946L78.8428 20.4557ZM135.785 20.4557L133.315 20.6502V2.0224L125.827 2.29461L126.014 0.350169H134.325L143.048 0.155724L142.861 2.21684L135.823 1.94462L135.673 9.3335L135.785 20.4557ZM159.633 20.4168L157.05 20.6891L155.141 15.3613L145.819 15.5557L143.909 20.6502L141.775 20.4168L150.124 0.350169L151.247 0.0779478L159.633 20.4168ZM150.386 3.81128L146.53 13.7668L154.542 13.9224L150.386 3.81128ZM168.206 20.4557L163.077 20.6113V0.544613L165.548 0.350169L165.436 8.82795L165.511 18.8613L173.747 18.5502L173.56 20.4557H168.206ZM180.523 20.4557L177.266 20.6113V0.505728L181.909 0.350169H187.674L187.487 2.29461L179.737 1.98351L179.55 9.60573L186.289 9.41129L185.877 11.3168L179.513 11.1224L179.7 18.8613L188.31 18.5891L188.123 20.4946H180.523V20.4557ZM194.413 20.4557L192.204 20.6502L192.391 0.544613L194.188 0.350169L206.131 15.9057L205.906 0.544613L208.115 0.350169L207.853 20.4557L207.029 20.6113L194.151 4.35573L194.413 20.4557ZM217.849 20.6502C216.726 20.6502 215.602 20.4168 214.517 19.9502C213.431 19.4835 212.607 18.9002 212.008 18.3168L213.206 16.9557C214.704 18.1224 216.314 19.0168 218.485 19.0168C220.881 19.0168 222.528 17.8891 222.528 15.6724C222.528 14.5057 222.117 13.6113 221.368 13.0668C220.619 12.5224 219.571 11.9779 218.298 11.4335C215.64 10.3446 212.795 9.21684 212.795 5.5224C212.795 2.56684 215.378 0.194616 218.897 0.194616C220.731 0.194616 222.641 0.739062 223.764 1.59462L223.315 3.34462C222.191 2.80017 220.02 1.98351 218.373 1.98351C216.538 1.98351 215.003 2.87795 215.003 4.82239C215.003 6.06684 215.415 6.96128 216.164 7.50572C216.913 8.08906 217.961 8.63351 219.196 9.17795C221.817 10.3446 224.737 11.2779 224.737 14.8946C224.775 18.7057 221.443 20.6502 217.849 20.6502Z" fill="#333333"/>
<path d="M95.2787 0.0776367V20.5721H115.008V0.0776367H95.2787ZM105.125 19.7165C100.108 19.7165 96.0649 15.5165 96.0649 10.3054C96.0649 5.09431 100.108 0.894306 105.125 0.894306C110.141 0.894306 114.185 5.09431 114.185 10.3054C114.185 15.5165 110.141 19.7165 105.125 19.7165ZM97.188 11.9776C97.3752 12.911 98.2737 15.1665 99.8086 14.6221C100.932 14.1943 101.007 13.1054 101.231 11.861C101.418 10.6943 101.718 8.47764 102.092 8.01097C102.13 7.97208 102.092 7.93319 102.055 7.93319C101.156 7.97208 100.557 10.0721 100.22 11.0443C99.584 12.9499 97.6373 13.1054 97.3003 11.9388C97.3003 11.9388 97.188 11.9387 97.188 11.9776ZM112.912 8.67208C112.687 8.16652 112.537 7.97208 112.313 7.50541C112.5 6.96097 112.725 6.22209 112.687 5.91098C112.537 4.58875 110.815 5.98874 111.19 7.69986C111.302 8.16652 111.414 8.51653 111.489 8.82764C110.965 9.91653 110.74 9.72208 110.778 9.33319C110.815 9.06097 110.853 8.51652 110.853 8.51652C111.002 7.46652 110.478 7.38875 110.141 7.62208C109.954 7.73875 109.692 8.12764 109.58 8.36097L109.692 7.85542L108.756 8.24431L108.457 9.83874C108.082 10.7332 107.671 10.8887 107.408 10.8499C107.334 10.811 107.259 10.7721 107.184 10.7332C108.045 9.95542 108.344 9.29431 108.27 8.82764C108.195 8.32209 107.82 8.32208 107.558 8.39986C106.884 8.6332 106.323 9.33319 106.173 10.3054C106.136 10.6165 106.136 10.9276 106.21 11.161C105.611 12.1332 105.574 11.5887 105.649 11.1999C105.836 10.3054 106.435 6.61097 106.435 6.61097L105.499 6.99986C105.499 6.99986 104.938 10.2276 104.713 11.4721C104.264 12.5999 104.151 12.1721 104.226 11.7832C104.376 10.8887 104.601 9.72208 104.601 9.72208L103.702 10.0721C103.702 10.0721 103.627 10.3443 103.552 10.811C103.44 10.461 103.215 10.2276 102.916 10.1888C102.354 10.111 101.755 10.8887 101.568 11.8221C101.381 12.7943 101.681 13.6499 102.242 13.6888C102.654 13.7276 103.066 13.3776 103.328 12.8332C103.478 13.1832 103.852 13.1443 104.077 12.9887C104.301 12.8332 104.526 12.4443 104.676 12.1332C104.75 12.5999 105.125 12.5999 105.387 12.4443C105.799 12.211 106.173 11.6665 106.36 11.4332C106.51 11.7054 106.772 11.861 107.072 11.8221C107.483 11.7832 107.97 11.2387 108.344 10.6165L108.195 11.3554L109.131 10.9665L109.468 9.17764C109.917 8.04986 110.067 8.43875 110.029 8.78875C110.029 8.78875 109.992 9.09986 109.917 9.60542C109.804 10.6554 110.254 10.6943 110.591 10.4999C111.077 10.1887 111.377 9.60541 111.639 9.06097C111.826 9.52763 112.051 9.91653 112.238 10.4999C113.586 14.4276 108.494 14.0387 106.473 14.1165C104.601 14.1943 104.413 15.8665 104.226 17.1499C111.19 17.2276 114.334 11.8999 112.912 8.67208ZM103.403 11.6665C103.365 12.1332 103.066 12.6387 102.804 12.6387C102.542 12.6387 102.354 12.2499 102.429 11.7054C102.504 11.2388 102.729 10.811 102.991 10.811C103.253 10.811 103.44 11.1999 103.403 11.6665ZM107.072 10.4221C107.034 10.3054 107.034 10.1887 107.034 10.0332C107.072 9.56652 107.296 9.06097 107.596 8.9832C107.708 8.94431 107.82 8.9832 107.82 9.17764C107.82 9.60542 107.408 10.111 107.072 10.4221ZM112.163 7.15541C112.126 7.11652 112.126 7.07764 112.126 7.03875C111.564 5.63875 112.313 5.4443 112.388 6.02764C112.388 6.33875 112.313 6.76652 112.163 7.15541ZM106.098 3.14986C105.986 4.04431 105.911 5.91097 104.226 6.18319C101.456 6.64986 97.7496 7.8943 97.1506 10.6943C97.1506 10.7332 97.0383 10.7332 97.0383 10.7332C96.9634 6.33875 100.745 3.14986 106.098 3.14986Z" fill="#FF0000"/>
</g>
<defs>
<clipPath id="clip0_1_251">
<rect width="225" height="21" fill="white"/>
</clipPath>
</defs>
</svg>
